HIERARCHY
ROOT Hips
{
  OFFSET 40.9192 92.6879 18.85
  CHANNELS 6 Xposition Yposition Zposition Zrotation Xrotation Yrotation
  JOINT LeftUpLeg
  {
    OFFSET 8.64259 1.95398 -2.38835
    CHANNELS 3 Zrotation Xrotation Yrotation
    JOINT LeftLeg
    {
      OFFSET 43.7702 0 0
      CHANNELS 3 Zrotation Xrotation Yrotation
      JOINT LeftFoot
      {
        OFFSET 40.6238 0 0
        CHANNELS 3 Zrotation Xrotation Yrotation
        JOINT LeftToeBase
        {
          OFFSET 12.7242 0 0
          CHANNELS 3 Zrotation Xrotation Yrotation
          End Site
          {
            OFFSET 0 0 0
          }
        }
      }
    }
  }
  JOINT RightUpLeg
  {
    OFFSET -8.2249 1.95398 -2.59336
    CHANNELS 3 Zrotation Xrotation Yrotation
    JOINT RightLeg
    {
      OFFSET 43.5653 0 0
      CHANNELS 3 Zrotation Xrotation Yrotation
      JOINT RightFoot
      {
        OFFSET 40.6238 0 0
        CHANNELS 3 Zrotation Xrotation Yrotation
        JOINT RightToeBase
        {
          OFFSET 12.7242 0 0
          CHANNELS 3 Zrotation Xrotation Yrotation
          End Site
          {
            OFFSET 0 0 0
          }
        }
      }
    }
  }
  JOINT Spine
  {
    OFFSET 0.165834 0.87714 6.61349
    CHANNELS 3 Zrotation Xrotation Yrotation
    JOINT Spine1
    {
      OFFSET 7.38963 1.71661e-005 0
      CHANNELS 3 Zrotation Xrotation Yrotation
      JOINT Spine2
      {
        OFFSET 11.9445 1.14441e-005 0
        CHANNELS 3 Zrotation Xrotation Yrotation
        JOINT Spine3
        {
          OFFSET 14.7254 4.19617e-005 0
          CHANNELS 3 Zrotation Xrotation Yrotation
          JOINT Spine4
          {
            OFFSET 10.9679 0 0
            CHANNELS 3 Zrotation Xrotation Yrotation
            JOINT RightShoulder
            {
              OFFSET 2.46616 -1.6653 3.69651
              CHANNELS 3 Zrotation Xrotation Yrotation
              JOINT RightArm
              {
                OFFSET 13.0012 0 0
                CHANNELS 3 Zrotation Xrotation Yrotation
                JOINT RightForeArm
                {
                  OFFSET 28.7848 1.52588e-005 0
                  CHANNELS 3 Zrotation Xrotation Yrotation
                  JOINT RightHand
                  {
                    OFFSET 26.5688 1.52588e-005 0
                    CHANNELS 3 Zrotation Xrotation Yrotation
                    End Site
                    {
                      OFFSET 0 0 0
                    }
                  }
                }
              }
            }
            JOINT LeftShoulder
            {
              OFFSET 2.38034 -1.29275 -3.7523
              CHANNELS 3 Zrotation Xrotation Yrotation
              JOINT LeftArm
              {
                OFFSET 16.3182 6.10351e-005 0
                CHANNELS 3 Zrotation Xrotation Yrotation
                JOINT LeftForeArm
                {
                  OFFSET 27.0901 0 0
                  CHANNELS 3 Zrotation Xrotation Yrotation
                  JOINT LeftHand
                  {
                    OFFSET 24.5451 1.52588e-005 0
                    CHANNELS 3 Zrotation Xrotation Yrotation
                    End Site
                    {
                      OFFSET 0 0 0
                    }
                  }
                }
              }
            }
            JOINT Neck
            {
              OFFSET 5.0226 -0.0266342 0
              CHANNELS 3 Zrotation Xrotation Yrotation
              JOINT Head
              {
                OFFSET 6.69363 2.86102e-005 0
                CHANNELS 3 Zrotation Xrotation Yrotation
                End Site
                {
                  OFFSET 0 0 0
                }
              }
            }
          }
        }
      }
    }
  }
}
MOTION
Frames:	12
Frame Time:	0.0416667
-122.602 11.6051 -121.06 1.91328 -7.84672 43.6541 -171.175 5.15367 92.3395 -23.9974 29.638 -2.70206 58.6459 0.148962 3.27139 78.4487 41.873 5.92023 176.58 5.5479 89.1223 -29.6547 -20.6298 -4.64104 65.9459 -3.36776 -1.88038 58.2 3.80439 11.7871 0.0602122 7.19525 -89.6624 12.4821 0.280347 0.6419 0.811025 0.308319 0.628952 -21.7229 0.0744794 0.696485 -1.71026 0.0744717 0.696469 94.265 -41.1031 -95.7734 2.13022 17.1817 40.1624 -27.2384 11.3057 -133.099 -65.9321 -7.1566 8.6686 -88.0584 -35.0964 78.4241 13.7442 -14.7176 53.0097 27.2241 -17.2239 -141.31 66.957 15.4713 17.9806 29.1215 -6.91271 6.65929 28.8627 -11.7387 -9.08012 
-122.625 11.6677 -121.05 2.09528 -7.84084 43.5763 -171.196 5.02497 92.2747 -23.8639 29.9282 -2.69994 57.9724 -0.354281 3.54784 80.4298 41.859 3.05635 176.503 5.46742 89.0316 -29.7436 -20.5549 -4.65118 66.2304 -3.46779 -1.92752 58.9173 3.7793 11.0996 0.111074 7.215 -89.6256 12.4421 0.398812 0.702071 0.771038 0.429332 0.683837 -21.7627 0.169371 0.789475 -1.75009 0.169379 0.789469 94.8914 -41.5834 -94.606 2.95722 15.912 39.388 -32.7175 17.5755 -130.56 -57.4748 -4.57504 6.71417 -86.3064 -31.9264 80.8626 3.85103 -13.2245 48.8055 31.4236 -22.2553 -138.423 67.6618 14.8673 16.8494 28.7904 -7.34252 5.56359 29.8487 -11.4417 -7.92024 
-122.675 11.6614 -121.063 2.22264 -7.82957 43.5876 -171.304 5.05656 92.2395 -24.1369 29.9862 -2.60104 58.1754 -0.162134 3.61298 81.9237 41.4323 0.267114 176.506 5.41395 89.0717 -29.8907 -20.573 -4.64988 66.3593 -3.50441 -1.94253 58.3795 3.55575 10.4098 0.138798 7.23426 -89.6554 12.4037 0.439637 0.637992 0.73272 0.467275 0.618029 -21.8014 0.227576 0.740622 -1.78874 0.227572 0.740619 95.3827 -40.8138 -93.8856 3.87349 15.655 39.1472 -31.9057 17.0024 -130.61 -61.7004 -4.32966 5.56056 -87.2394 -33.0142 79.3939 7.79688 -14.3494 50.4139 29.3538 -19.7971 -139.591 67.8886 14.5363 16.3036 29.1454 -7.35618 6.08716 29.5751 -11.6783 -8.05991 
-122.645 11.6564 -121.06 2.12277 -7.84315 43.6356 -171.294 5.1027 92.2692 -24.1372 29.9168 -2.60733 58.0223 -0.294682 3.6474 84.4317 40.5063 -4.60457 176.547 5.46561 89.1083 -29.7905 -20.4329 -4.63614 66.205 -3.45191 -1.91968 59.0197 3.81697 11.2146 0.228569 7.24612 -89.6986 12.38 0.597425 0.533768 0.709131 0.620329 0.506967 -21.8258 0.409389 0.688644 -1.81311 0.409376 0.688623 96.401 -40.3236 -92.1814 4.25599 15.2201 38.6271 -32.7536 18.0343 -130.287 -57.0851 -4.96267 7.3505 -87.9128 -33.6328 78.3067 9.53384 -14.7883 50.9645 28.6106 -18.7981 -140.13 67.8043 14.531 16.3253 29.5032 -7.50547 5.64363 29.4417 -11.2951 -6.9155 
-122.585 11.7365 -121.045 2.02586 -8.08881 43.4413 -171.357 4.84086 91.9392 -23.9426 29.2786 -2.60279 58.171 -0.108984 3.64772 85.5786 39.3384 -8.0382 176.607 5.54353 89.0086 -30.1189 -20.5924 -4.88269 66.1255 -3.40341 -1.88646 59.3315 3.72638 10.5507 0.32982 7.28013 -89.746 12.3122 0.776015 0.419397 0.641414 0.793717 0.384848 -21.8945 0.614082 0.633233 -1.88181 0.614088 0.633254 97.4643 -39.2512 -90.4383 5.29237 14.5933 37.8177 -33.1726 18.7729 -130.207 -56.3094 -5.24514 8.0254 -87.1323 -32.7872 79.5304 4.57908 -13.3821 47.5653 31.0831 -21.6865 -138.393 66.7983 14.9289 17.274 29.4773 -7.51195 6.15607 29.526 -11.3832 -6.58737 
-122.429 11.7893 -121.129 1.6918 -8.56108 43.1275 -171.283 4.40643 91.5515 -23.5581 28.9745 -2.83175 58.9748 0.612348 3.86977 84.9502 37.5998 -10.3153 176.357 5.68882 88.6003 -30.5356 -20.8331 -5.0136 66.0055 -3.30797 -1.82344 60.2197 3.92805 10.8714 0.413167 7.30607 -89.8058 12.2608 0.913268 0.285206 0.590151 0.92493 0.244732 -21.9467 0.785321 0.546508 -1.93411 0.785319 0.546507 97.5401 -37.265 -90.5435 6.16728 14.9327 37.4993 -32.7068 18.2302 -130.219 -56.5861 -5.32726 8.0676 -87.4155 -33.7636 79.2565 6.45959 -14.3233 47.6785 29.7144 -20.1852 -138.696 64.8816 14.0477 16.7538 30.1785 -7.3761 6.77861 28.8617 -11.3714 -6.26487 
-122.2 11.8638 -121.329 1.39321 -9.42616 43 -171.353 3.65283 91.2236 -23.2991 28.8432 -2.82513 60.078 1.63853 4.42211 83.8181 35.7768 -12.2375 176.178 5.49151 88.377 -30.9139 -21.0294 -5.0223 65.992 -3.29947 -1.8165 59.9171 3.02333 6.8209 0.520575 7.39123 -89.9122 12.0919 1.07637 0.0563704 0.421461 1.0778 0.00894399 -22.117 1.00965 0.377291 -2.10434 1.00965 0.377306 98.5004 -35.8178 -88.926 6.3564 15.5963 36.0014 -33.7649 18.2914 -130.324 -58.0046 -5.02089 7.42268 -87.0185 -36.1587 80.5371 7.22175 -16.8273 46.0559 28.7437 -19.2808 -139.15 61.816 12.7962 16.0294 30.7801 -7.00853 6.93324 28.7221 -10.921 -5.67147 
-121.923 11.9507 -121.507 0.800618 -10.0372 42.8881 -171.326 3.34832 90.9669 -22.9193 28.2134 -2.8785 60.2977 1.86114 4.25345 83.9936 34.5143 -14.7852 175.619 5.55846 88.2609 -30.7811 -19.4373 -4.40963 65.3345 -2.96428 -1.6296 62.424 2.47866 3.30554 0.597548 7.43686 -90.0206 12.0016 1.1784 -0.169328 0.331186 1.16981 -0.221039 -22.2082 1.1748 0.192715 -2.19554 1.17481 0.192703 99.4329 -34.8494 -87.2555 7.38478 15.1413 33.0671 -32.9332 18.1137 -130.24 -59.6656 -4.42592 5.96157 -85.9398 -38.0911 82.8361 5.10004 -20.4062 43.3861 29.6057 -20.6538 -139.145 57.1263 11.6482 16.0237 31.1981 -6.50321 6.53987 28.5045 -10.1604 -5.177 
-121.716 12.0348 -121.647 0.444929 -10.8202 42.5891 -171.456 2.53134 90.5606 -22.1292 27.3583 -2.81043 60.1637 1.78091 3.76517 84.6169 33.8632 -16.7268 174.828 5.25435 88.0217 -30.6866 -17.0098 -3.59969 65.8024 -3.05673 -1.66463 62.1947 2.13968 1.9327 0.65749 7.47505 -90.0532 11.9258 1.28227 -0.24435 0.255505 1.2703 -0.300559 -22.2847 1.29642 0.152404 -2.27206 1.29642 0.152395 99.6585 -34.0664 -86.8833 7.13332 16.7084 32.0286 -34.4345 18.317 -130.114 -58.8622 -4.48064 6.36683 -86.2783 -39.4227 82.5066 7.90389 -25.1294 44.9042 28.7623 -20.1833 -140.906 54.2464 10.7981 15.6949 30.4534 -6.06717 5.62535 29.5815 -9.12377 -4.21289 
-121.545 12.1121 -121.788 0.13822 -11.4967 42.2619 -171.576 1.93351 90.1834 -21.6556 27.3681 -2.83114 60.1266 1.78423 3.78383 83.5749 33.8409 -15.5537 173.728 5.06179 87.56 -30.4772 -14.8267 -2.51331 65.3809 -2.79109 -1.51456 63.6288 2.37561 2.47236 0.654968 7.54237 -90.1509 11.792 1.23168 -0.431703 0.121575 1.21149 -0.485504 -22.4182 1.30447 -0.0415105 -2.40559 1.30448 -0.0415124 100.355 -33.1937 -85.5878 10.5602 11.5018 28.5338 -33.6778 20.5772 -129.545 -53.8237 -4.87569 7.7414 -86.2513 -40.5325 82.7639 12.4186 -29.9162 47.2143 26.3691 -17.271 -143.413 52.6259 10.3743 15.5757 30.9679 -5.06269 5.70496 29.2791 -7.95598 -3.36979 
-121.367 12.1587 -121.899 -0.526707 -12.0578 42.3043 -171.448 2.01164 90.2322 -21.7753 27.8272 -3.00229 59.9925 1.73497 4.61391 81.6606 34.6294 -11.7282 173.006 5.20571 87.4969 -30.2349 -12.9385 -1.50904 64.2635 -2.32196 -1.26847 66.4816 2.54451 2.26779 0.684854 7.55171 -90.3231 11.7751 1.21029 -0.771529 0.104379 1.17517 -0.824086 -22.4347 1.38621 -0.372076 -2.42207 1.3862 -0.372088 100.56 -30.9625 -85.308 17.9966 -0.178412 23.9666 -30.9626 21.3705 -130.679 -63.0228 -4.15345 4.09427 -85.2273 -39.485 84.3143 24.145 -39.1418 51.6459 22.2647 -11.7456 -147.654 48.9487 8.97947 14.4293 31.6881 -3.64732 6.42086 28.7676 -6.92935 -3.39601 
-121.01 12.1715 -122.065 -1.58903 -12.5882 41.6324 -171.686 2.09717 89.4757 -21.739 26.0635 -3.0708 60.3222 1.8735 3.44461 76.5611 34.9366 -4.17897 171.9 6.33123 86.5104 -31.3428 -13.0621 -0.733871 63.895 -2.17258 -1.19213 69.2848 1.41239 -2.15945 0.678918 7.51057 -90.5206 11.8579 1.10512 -1.15634 0.186891 1.05315 -1.20385 -22.35 1.40154 -0.770724 -2.33729 1.40154 -0.77076 100.381 -28.343 -85.8343 19.8658 -11.1715 18.4931 -31.1681 23.9195 -129.234 -65.0578 -5.98909 6.33785 -84.5128 -36.9752 85.1333 42.7868 -47.0929 59.6829 17.5432 -3.16982 -150.274 47.855 7.39645 11.4915 32.2758 -1.59009 6.73962 28.4799 -4.98591 -2.86696 
